<mxfile host="app.diagrams.net" modified="2024-01-02T10:58:11.716Z" agent="Mozilla/5.0 (Macintosh; Intel Mac OS X 10_15_7) AppleWebKit/537.36 (KHTML, like Gecko) Chrome/120.0.0.0 Safari/537.36" version="22.1.16" etag="SNMeDpm7RZvp6IVtQhac" type="github">
  <diagram name="第 1 页" id="Faka9xy6Az8H3kE0TKsQ">
    <mxGraphModel>
      <root>
        <mxCell id="0" />
        <mxCell id="1" parent="0" />
      </root>
    </mxGraphModel>
  </diagram>
</mxfile>
